<mxfile host="app.diagrams.net" agent="Mozilla/5.0 (Windows NT 10.0; Win64; x64) AppleWebKit/537.36 (KHTML, like Gecko) Chrome/131.0.0.0 Safari/537.36" version="25.0.3">
  <diagram name="Page-1" id="8WcSc6DOCWLDvUvgZ5uq">
    <mxGraphModel dx="1073" dy="444" grid="0" gridSize="10" guides="1" tooltips="1" connect="1" arrows="1" fold="1" page="0" pageScale="1" pageWidth="850" pageHeight="1100" math="0" shadow="0">
      <root>
        <mxCell id="0" />
        <mxCell id="1" parent="0" />
        <mxCell id="gm0AA_5XcxrUGEXG0xiD-1" value="User : Person" style="rounded=0;whiteSpace=wrap;html=1;" vertex="1" parent="1">
          <mxGeometry x="-38" y="106" width="89" height="38" as="geometry" />
        </mxCell>
        <mxCell id="gm0AA_5XcxrUGEXG0xiD-2" value="Authenticate System" style="rounded=0;whiteSpace=wrap;html=1;" vertex="1" parent="1">
          <mxGeometry x="322" y="103" width="120" height="41" as="geometry" />
        </mxCell>
        <mxCell id="gm0AA_5XcxrUGEXG0xiD-3" value="Receptionist/Counter person:Person" style="rounded=0;whiteSpace=wrap;html=1;" vertex="1" parent="1">
          <mxGeometry x="138" y="105" width="111" height="39" as="geometry" />
        </mxCell>
        <mxCell id="gm0AA_5XcxrUGEXG0xiD-4" style="edgeStyle=none;curved=1;rounded=0;orthogonalLoop=1;jettySize=auto;html=1;exitX=0.5;exitY=0;exitDx=0;exitDy=0;fontSize=12;startSize=8;endSize=8;" edge="1" parent="1" source="gm0AA_5XcxrUGEXG0xiD-2" target="gm0AA_5XcxrUGEXG0xiD-2">
          <mxGeometry relative="1" as="geometry" />
        </mxCell>
        <mxCell id="gm0AA_5XcxrUGEXG0xiD-5" style="edgeStyle=none;curved=1;rounded=0;orthogonalLoop=1;jettySize=auto;html=1;exitX=1;exitY=0.5;exitDx=0;exitDy=0;fontSize=12;startSize=8;endSize=8;" edge="1" parent="1" source="gm0AA_5XcxrUGEXG0xiD-2" target="gm0AA_5XcxrUGEXG0xiD-2">
          <mxGeometry relative="1" as="geometry" />
        </mxCell>
        <mxCell id="gm0AA_5XcxrUGEXG0xiD-6" style="edgeStyle=none;curved=1;rounded=0;orthogonalLoop=1;jettySize=auto;html=1;exitX=0;exitY=0;exitDx=0;exitDy=0;fontSize=12;startSize=8;endSize=8;" edge="1" parent="1" source="gm0AA_5XcxrUGEXG0xiD-2" target="gm0AA_5XcxrUGEXG0xiD-2">
          <mxGeometry relative="1" as="geometry" />
        </mxCell>
        <mxCell id="gm0AA_5XcxrUGEXG0xiD-7" value="" style="rounded=0;whiteSpace=wrap;html=1;" vertex="1" parent="1">
          <mxGeometry x="-15" y="175" width="31" height="53" as="geometry" />
        </mxCell>
        <mxCell id="gm0AA_5XcxrUGEXG0xiD-8" value="" style="rounded=0;whiteSpace=wrap;html=1;" vertex="1" parent="1">
          <mxGeometry x="181" y="275" width="31" height="53" as="geometry" />
        </mxCell>
        <mxCell id="gm0AA_5XcxrUGEXG0xiD-9" value="" style="rounded=0;whiteSpace=wrap;html=1;" vertex="1" parent="1">
          <mxGeometry x="178" y="180" width="31" height="53" as="geometry" />
        </mxCell>
        <mxCell id="gm0AA_5XcxrUGEXG0xiD-18" value="" style="endArrow=classic;html=1;rounded=0;fontSize=12;startSize=8;endSize=8;curved=1;" edge="1" parent="1">
          <mxGeometry relative="1" as="geometry">
            <mxPoint x="18" y="206" as="sourcePoint" />
            <mxPoint x="178" y="206" as="targetPoint" />
          </mxGeometry>
        </mxCell>
        <mxCell id="gm0AA_5XcxrUGEXG0xiD-22" value="1.Ask for boarding pass" style="edgeLabel;html=1;align=center;verticalAlign=middle;resizable=0;points=[];fontSize=12;" vertex="1" connectable="0" parent="gm0AA_5XcxrUGEXG0xiD-18">
          <mxGeometry x="0.0067" y="2" relative="1" as="geometry">
            <mxPoint as="offset" />
          </mxGeometry>
        </mxCell>
        <mxCell id="gm0AA_5XcxrUGEXG0xiD-37" value="" style="endArrow=classic;html=1;rounded=0;fontSize=12;startSize=8;endSize=8;curved=1;entryX=1;entryY=0.5;entryDx=0;entryDy=0;" edge="1" parent="1" target="gm0AA_5XcxrUGEXG0xiD-39">
          <mxGeometry relative="1" as="geometry">
            <mxPoint x="177" y="296" as="sourcePoint" />
            <mxPoint x="33" y="296" as="targetPoint" />
          </mxGeometry>
        </mxCell>
        <mxCell id="gm0AA_5XcxrUGEXG0xiD-38" value="Label" style="edgeLabel;resizable=0;html=1;fontSize=12;;align=center;verticalAlign=middle;" connectable="0" vertex="1" parent="gm0AA_5XcxrUGEXG0xiD-37">
          <mxGeometry relative="1" as="geometry" />
        </mxCell>
        <mxCell id="gm0AA_5XcxrUGEXG0xiD-41" value="2.Ask for ID Proof" style="edgeLabel;html=1;align=center;verticalAlign=middle;resizable=0;points=[];fontSize=12;" vertex="1" connectable="0" parent="gm0AA_5XcxrUGEXG0xiD-37">
          <mxGeometry x="0.0122" y="1" relative="1" as="geometry">
            <mxPoint as="offset" />
          </mxGeometry>
        </mxCell>
        <mxCell id="gm0AA_5XcxrUGEXG0xiD-39" value="" style="rounded=0;whiteSpace=wrap;html=1;" vertex="1" parent="1">
          <mxGeometry x="-15" y="271" width="31" height="53" as="geometry" />
        </mxCell>
        <mxCell id="gm0AA_5XcxrUGEXG0xiD-42" value="" style="rounded=0;whiteSpace=wrap;html=1;" vertex="1" parent="1">
          <mxGeometry x="-9" y="378" width="31" height="53" as="geometry" />
        </mxCell>
        <mxCell id="gm0AA_5XcxrUGEXG0xiD-43" value="" style="rounded=0;whiteSpace=wrap;html=1;" vertex="1" parent="1">
          <mxGeometry x="185" y="381" width="31" height="53" as="geometry" />
        </mxCell>
        <mxCell id="gm0AA_5XcxrUGEXG0xiD-45" value="" style="endArrow=classic;html=1;rounded=0;fontSize=12;startSize=8;endSize=8;curved=1;" edge="1" parent="1">
          <mxGeometry relative="1" as="geometry">
            <mxPoint x="25" y="404" as="sourcePoint" />
            <mxPoint x="185" y="404" as="targetPoint" />
          </mxGeometry>
        </mxCell>
        <mxCell id="gm0AA_5XcxrUGEXG0xiD-46" value="3.Show ID proof" style="edgeLabel;html=1;align=center;verticalAlign=middle;resizable=0;points=[];fontSize=12;" vertex="1" connectable="0" parent="gm0AA_5XcxrUGEXG0xiD-45">
          <mxGeometry x="0.0067" y="2" relative="1" as="geometry">
            <mxPoint as="offset" />
          </mxGeometry>
        </mxCell>
        <mxCell id="gm0AA_5XcxrUGEXG0xiD-47" value="" style="rounded=0;whiteSpace=wrap;html=1;" vertex="1" parent="1">
          <mxGeometry x="399" y="497" width="31" height="53" as="geometry" />
        </mxCell>
        <mxCell id="gm0AA_5XcxrUGEXG0xiD-48" value="" style="rounded=0;whiteSpace=wrap;html=1;" vertex="1" parent="1">
          <mxGeometry x="393" y="381" width="31" height="53" as="geometry" />
        </mxCell>
        <mxCell id="gm0AA_5XcxrUGEXG0xiD-49" value="" style="endArrow=classic;html=1;rounded=0;fontSize=12;startSize=8;endSize=8;curved=1;" edge="1" parent="1">
          <mxGeometry relative="1" as="geometry">
            <mxPoint x="229" y="412" as="sourcePoint" />
            <mxPoint x="389" y="412" as="targetPoint" />
          </mxGeometry>
        </mxCell>
        <mxCell id="gm0AA_5XcxrUGEXG0xiD-50" value="4.Check for user autheticity" style="edgeLabel;html=1;align=center;verticalAlign=middle;resizable=0;points=[];fontSize=12;" vertex="1" connectable="0" parent="gm0AA_5XcxrUGEXG0xiD-49">
          <mxGeometry x="0.0067" y="2" relative="1" as="geometry">
            <mxPoint as="offset" />
          </mxGeometry>
        </mxCell>
        <mxCell id="gm0AA_5XcxrUGEXG0xiD-51" value="" style="endArrow=classic;html=1;rounded=0;fontSize=12;startSize=8;endSize=8;curved=1;entryX=1;entryY=0.5;entryDx=0;entryDy=0;" edge="1" parent="1">
          <mxGeometry relative="1" as="geometry">
            <mxPoint x="399" y="522.5" as="sourcePoint" />
            <mxPoint x="238" y="524.5" as="targetPoint" />
          </mxGeometry>
        </mxCell>
        <mxCell id="gm0AA_5XcxrUGEXG0xiD-52" value="Label" style="edgeLabel;resizable=0;html=1;fontSize=12;;align=center;verticalAlign=middle;" connectable="0" vertex="1" parent="gm0AA_5XcxrUGEXG0xiD-51">
          <mxGeometry relative="1" as="geometry" />
        </mxCell>
        <mxCell id="gm0AA_5XcxrUGEXG0xiD-53" value="6.Send user details" style="edgeLabel;html=1;align=center;verticalAlign=middle;resizable=0;points=[];fontSize=12;" vertex="1" connectable="0" parent="gm0AA_5XcxrUGEXG0xiD-51">
          <mxGeometry x="0.0122" y="1" relative="1" as="geometry">
            <mxPoint x="-2" y="-2" as="offset" />
          </mxGeometry>
        </mxCell>
        <mxCell id="gm0AA_5XcxrUGEXG0xiD-54" value="" style="endArrow=none;html=1;rounded=0;fontSize=12;startSize=8;endSize=8;curved=1;entryX=0.5;entryY=1;entryDx=0;entryDy=0;" edge="1" parent="1" target="gm0AA_5XcxrUGEXG0xiD-48">
          <mxGeometry width="50" height="50" relative="1" as="geometry">
            <mxPoint x="410" y="490" as="sourcePoint" />
            <mxPoint x="408" y="438" as="targetPoint" />
          </mxGeometry>
        </mxCell>
        <mxCell id="gm0AA_5XcxrUGEXG0xiD-55" value="" style="endArrow=none;html=1;rounded=0;fontSize=12;startSize=8;endSize=8;curved=1;entryX=1;entryY=0.5;entryDx=0;entryDy=0;exitX=1;exitY=0.5;exitDx=0;exitDy=0;" edge="1" parent="1" source="gm0AA_5XcxrUGEXG0xiD-47" target="gm0AA_5XcxrUGEXG0xiD-48">
          <mxGeometry width="50" height="50" relative="1" as="geometry">
            <mxPoint x="175" y="497" as="sourcePoint" />
            <mxPoint x="225" y="447" as="targetPoint" />
            <Array as="points">
              <mxPoint x="456" y="459" />
            </Array>
          </mxGeometry>
        </mxCell>
        <mxCell id="gm0AA_5XcxrUGEXG0xiD-56" value="5.Check user information" style="edgeLabel;html=1;align=center;verticalAlign=middle;resizable=0;points=[];fontSize=12;" vertex="1" connectable="0" parent="gm0AA_5XcxrUGEXG0xiD-55">
          <mxGeometry x="0.3027" y="5" relative="1" as="geometry">
            <mxPoint as="offset" />
          </mxGeometry>
        </mxCell>
        <mxCell id="gm0AA_5XcxrUGEXG0xiD-60" value="" style="rounded=0;whiteSpace=wrap;html=1;" vertex="1" parent="1">
          <mxGeometry x="185" y="490" width="31" height="53" as="geometry" />
        </mxCell>
        <mxCell id="gm0AA_5XcxrUGEXG0xiD-61" value="" style="rounded=0;whiteSpace=wrap;html=1;" vertex="1" parent="1">
          <mxGeometry x="-5" y="485" width="31" height="53" as="geometry" />
        </mxCell>
        <mxCell id="gm0AA_5XcxrUGEXG0xiD-62" value="" style="endArrow=classic;html=1;rounded=0;fontSize=12;startSize=8;endSize=8;curved=1;entryX=1;entryY=0.5;entryDx=0;entryDy=0;" edge="1" parent="1">
          <mxGeometry relative="1" as="geometry">
            <mxPoint x="186" y="514" as="sourcePoint" />
            <mxPoint x="25" y="516" as="targetPoint" />
          </mxGeometry>
        </mxCell>
        <mxCell id="gm0AA_5XcxrUGEXG0xiD-63" value="Label" style="edgeLabel;resizable=0;html=1;fontSize=12;;align=center;verticalAlign=middle;" connectable="0" vertex="1" parent="gm0AA_5XcxrUGEXG0xiD-62">
          <mxGeometry relative="1" as="geometry" />
        </mxCell>
        <mxCell id="gm0AA_5XcxrUGEXG0xiD-64" value="7.Generate Boarding Pass" style="edgeLabel;html=1;align=center;verticalAlign=middle;resizable=0;points=[];fontSize=12;" vertex="1" connectable="0" parent="gm0AA_5XcxrUGEXG0xiD-62">
          <mxGeometry x="0.0122" y="1" relative="1" as="geometry">
            <mxPoint as="offset" />
          </mxGeometry>
        </mxCell>
        <mxCell id="gm0AA_5XcxrUGEXG0xiD-65" value="" style="endArrow=none;dashed=1;html=1;dashPattern=1 3;strokeWidth=2;rounded=0;fontSize=12;startSize=8;endSize=8;curved=1;entryX=0.5;entryY=1;entryDx=0;entryDy=0;exitX=0.75;exitY=0;exitDx=0;exitDy=0;" edge="1" parent="1" source="gm0AA_5XcxrUGEXG0xiD-7" target="gm0AA_5XcxrUGEXG0xiD-1">
          <mxGeometry width="50" height="50" relative="1" as="geometry">
            <mxPoint x="166" y="364" as="sourcePoint" />
            <mxPoint x="216" y="314" as="targetPoint" />
          </mxGeometry>
        </mxCell>
        <mxCell id="gm0AA_5XcxrUGEXG0xiD-66" value="" style="endArrow=none;dashed=1;html=1;dashPattern=1 3;strokeWidth=2;rounded=0;fontSize=12;startSize=8;endSize=8;curved=1;entryX=0.5;entryY=1;entryDx=0;entryDy=0;exitX=0.5;exitY=0;exitDx=0;exitDy=0;" edge="1" parent="1" source="gm0AA_5XcxrUGEXG0xiD-39" target="gm0AA_5XcxrUGEXG0xiD-7">
          <mxGeometry width="50" height="50" relative="1" as="geometry">
            <mxPoint x="166" y="364" as="sourcePoint" />
            <mxPoint x="216" y="314" as="targetPoint" />
          </mxGeometry>
        </mxCell>
        <mxCell id="gm0AA_5XcxrUGEXG0xiD-67" value="" style="endArrow=none;dashed=1;html=1;dashPattern=1 3;strokeWidth=2;rounded=0;fontSize=12;startSize=8;endSize=8;curved=1;" edge="1" parent="1">
          <mxGeometry width="50" height="50" relative="1" as="geometry">
            <mxPoint x="-3" y="376" as="sourcePoint" />
            <mxPoint x="-3" y="327" as="targetPoint" />
          </mxGeometry>
        </mxCell>
        <mxCell id="gm0AA_5XcxrUGEXG0xiD-68" value="" style="endArrow=none;dashed=1;html=1;dashPattern=1 3;strokeWidth=2;rounded=0;fontSize=12;startSize=8;endSize=8;curved=1;exitX=0.5;exitY=1;exitDx=0;exitDy=0;" edge="1" parent="1" source="gm0AA_5XcxrUGEXG0xiD-42">
          <mxGeometry width="50" height="50" relative="1" as="geometry">
            <mxPoint x="166" y="403" as="sourcePoint" />
            <mxPoint x="7" y="485" as="targetPoint" />
          </mxGeometry>
        </mxCell>
        <mxCell id="gm0AA_5XcxrUGEXG0xiD-69" value="" style="endArrow=none;dashed=1;html=1;dashPattern=1 3;strokeWidth=2;rounded=0;fontSize=12;startSize=8;endSize=8;curved=1;entryX=0.5;entryY=1;entryDx=0;entryDy=0;exitX=0.5;exitY=0;exitDx=0;exitDy=0;" edge="1" parent="1" source="gm0AA_5XcxrUGEXG0xiD-9" target="gm0AA_5XcxrUGEXG0xiD-3">
          <mxGeometry width="50" height="50" relative="1" as="geometry">
            <mxPoint x="166" y="334" as="sourcePoint" />
            <mxPoint x="216" y="284" as="targetPoint" />
          </mxGeometry>
        </mxCell>
        <mxCell id="gm0AA_5XcxrUGEXG0xiD-70" value="" style="endArrow=none;dashed=1;html=1;dashPattern=1 3;strokeWidth=2;rounded=0;fontSize=12;startSize=8;endSize=8;curved=1;entryX=0.5;entryY=1;entryDx=0;entryDy=0;exitX=0.5;exitY=0;exitDx=0;exitDy=0;" edge="1" parent="1" source="gm0AA_5XcxrUGEXG0xiD-8" target="gm0AA_5XcxrUGEXG0xiD-9">
          <mxGeometry width="50" height="50" relative="1" as="geometry">
            <mxPoint x="166" y="334" as="sourcePoint" />
            <mxPoint x="216" y="284" as="targetPoint" />
          </mxGeometry>
        </mxCell>
        <mxCell id="gm0AA_5XcxrUGEXG0xiD-71" value="" style="endArrow=none;dashed=1;html=1;dashPattern=1 3;strokeWidth=2;rounded=0;fontSize=12;startSize=8;endSize=8;curved=1;entryX=0.5;entryY=1;entryDx=0;entryDy=0;" edge="1" parent="1" target="gm0AA_5XcxrUGEXG0xiD-8">
          <mxGeometry width="50" height="50" relative="1" as="geometry">
            <mxPoint x="200" y="380" as="sourcePoint" />
            <mxPoint x="216" y="284" as="targetPoint" />
          </mxGeometry>
        </mxCell>
        <mxCell id="gm0AA_5XcxrUGEXG0xiD-72" value="" style="endArrow=none;dashed=1;html=1;dashPattern=1 3;strokeWidth=2;rounded=0;fontSize=12;startSize=8;endSize=8;curved=1;entryX=0.5;entryY=1;entryDx=0;entryDy=0;" edge="1" parent="1" target="gm0AA_5XcxrUGEXG0xiD-43">
          <mxGeometry width="50" height="50" relative="1" as="geometry">
            <mxPoint x="203" y="488" as="sourcePoint" />
            <mxPoint x="216" y="371" as="targetPoint" />
          </mxGeometry>
        </mxCell>
        <mxCell id="gm0AA_5XcxrUGEXG0xiD-73" value="" style="endArrow=none;dashed=1;html=1;dashPattern=1 3;strokeWidth=2;rounded=0;fontSize=12;startSize=8;endSize=8;curved=1;exitX=0.25;exitY=0;exitDx=0;exitDy=0;" edge="1" parent="1" source="gm0AA_5XcxrUGEXG0xiD-48">
          <mxGeometry width="50" height="50" relative="1" as="geometry">
            <mxPoint x="166" y="331" as="sourcePoint" />
            <mxPoint x="394" y="148" as="targetPoint" />
          </mxGeometry>
        </mxCell>
        <mxCell id="gm0AA_5XcxrUGEXG0xiD-74" value="" style="rounded=0;whiteSpace=wrap;html=1;" vertex="1" parent="1">
          <mxGeometry x="-5" y="583" width="31" height="53" as="geometry" />
        </mxCell>
        <mxCell id="gm0AA_5XcxrUGEXG0xiD-75" value="" style="rounded=0;whiteSpace=wrap;html=1;" vertex="1" parent="1">
          <mxGeometry x="188" y="583" width="31" height="53" as="geometry" />
        </mxCell>
        <mxCell id="gm0AA_5XcxrUGEXG0xiD-76" value="" style="rounded=0;whiteSpace=wrap;html=1;" vertex="1" parent="1">
          <mxGeometry x="407" y="597" width="31" height="53" as="geometry" />
        </mxCell>
        <mxCell id="gm0AA_5XcxrUGEXG0xiD-77" value="" style="rounded=0;whiteSpace=wrap;html=1;" vertex="1" parent="1">
          <mxGeometry x="-5" y="688" width="31" height="53" as="geometry" />
        </mxCell>
        <mxCell id="gm0AA_5XcxrUGEXG0xiD-78" value="" style="rounded=0;whiteSpace=wrap;html=1;" vertex="1" parent="1">
          <mxGeometry x="185" y="692" width="31" height="53" as="geometry" />
        </mxCell>
        <mxCell id="gm0AA_5XcxrUGEXG0xiD-79" value="" style="rounded=0;whiteSpace=wrap;html=1;" vertex="1" parent="1">
          <mxGeometry x="411" y="702" width="31" height="53" as="geometry" />
        </mxCell>
        <mxCell id="gm0AA_5XcxrUGEXG0xiD-80" value="" style="endArrow=classic;html=1;rounded=0;fontSize=12;startSize=8;endSize=8;curved=1;" edge="1" parent="1">
          <mxGeometry relative="1" as="geometry">
            <mxPoint x="28" y="614" as="sourcePoint" />
            <mxPoint x="188" y="614" as="targetPoint" />
          </mxGeometry>
        </mxCell>
        <mxCell id="gm0AA_5XcxrUGEXG0xiD-81" value="7.Checking luggage quantity" style="edgeLabel;html=1;align=center;verticalAlign=middle;resizable=0;points=[];fontSize=12;" vertex="1" connectable="0" parent="gm0AA_5XcxrUGEXG0xiD-80">
          <mxGeometry x="0.0067" y="2" relative="1" as="geometry">
            <mxPoint as="offset" />
          </mxGeometry>
        </mxCell>
        <mxCell id="gm0AA_5XcxrUGEXG0xiD-82" value="" style="endArrow=classic;html=1;rounded=0;fontSize=12;startSize=8;endSize=8;curved=1;" edge="1" parent="1">
          <mxGeometry relative="1" as="geometry">
            <mxPoint x="222" y="613" as="sourcePoint" />
            <mxPoint x="382" y="613" as="targetPoint" />
          </mxGeometry>
        </mxCell>
        <mxCell id="gm0AA_5XcxrUGEXG0xiD-83" value="8.System checking limit" style="edgeLabel;html=1;align=center;verticalAlign=middle;resizable=0;points=[];fontSize=12;" vertex="1" connectable="0" parent="gm0AA_5XcxrUGEXG0xiD-82">
          <mxGeometry x="0.0067" y="2" relative="1" as="geometry">
            <mxPoint as="offset" />
          </mxGeometry>
        </mxCell>
        <mxCell id="gm0AA_5XcxrUGEXG0xiD-85" value="" style="endArrow=classic;html=1;rounded=0;fontSize=12;startSize=8;endSize=8;curved=1;entryX=1;entryY=0.5;entryDx=0;entryDy=0;" edge="1" parent="1">
          <mxGeometry relative="1" as="geometry">
            <mxPoint x="399" y="722" as="sourcePoint" />
            <mxPoint x="238" y="724" as="targetPoint" />
          </mxGeometry>
        </mxCell>
        <mxCell id="gm0AA_5XcxrUGEXG0xiD-86" value="Label" style="edgeLabel;resizable=0;html=1;fontSize=12;;align=center;verticalAlign=middle;" connectable="0" vertex="1" parent="gm0AA_5XcxrUGEXG0xiD-85">
          <mxGeometry relative="1" as="geometry" />
        </mxCell>
        <mxCell id="gm0AA_5XcxrUGEXG0xiD-87" value="10.System send response" style="edgeLabel;html=1;align=center;verticalAlign=middle;resizable=0;points=[];fontSize=12;" vertex="1" connectable="0" parent="gm0AA_5XcxrUGEXG0xiD-85">
          <mxGeometry x="0.0122" y="1" relative="1" as="geometry">
            <mxPoint x="-2" y="-2" as="offset" />
          </mxGeometry>
        </mxCell>
        <mxCell id="gm0AA_5XcxrUGEXG0xiD-88" value="" style="endArrow=classic;html=1;rounded=0;fontSize=12;startSize=8;endSize=8;curved=1;entryX=1;entryY=0.5;entryDx=0;entryDy=0;" edge="1" parent="1">
          <mxGeometry relative="1" as="geometry">
            <mxPoint x="192" y="721" as="sourcePoint" />
            <mxPoint x="31" y="723" as="targetPoint" />
          </mxGeometry>
        </mxCell>
        <mxCell id="gm0AA_5XcxrUGEXG0xiD-89" value="Label" style="edgeLabel;resizable=0;html=1;fontSize=12;;align=center;verticalAlign=middle;" connectable="0" vertex="1" parent="gm0AA_5XcxrUGEXG0xiD-88">
          <mxGeometry relative="1" as="geometry" />
        </mxCell>
        <mxCell id="gm0AA_5XcxrUGEXG0xiD-90" value="11.User can board to flight" style="edgeLabel;html=1;align=center;verticalAlign=middle;resizable=0;points=[];fontSize=12;" vertex="1" connectable="0" parent="gm0AA_5XcxrUGEXG0xiD-88">
          <mxGeometry x="0.0122" y="1" relative="1" as="geometry">
            <mxPoint x="-2" y="-2" as="offset" />
          </mxGeometry>
        </mxCell>
        <mxCell id="gm0AA_5XcxrUGEXG0xiD-91" value="" style="endArrow=none;html=1;rounded=0;fontSize=12;startSize=8;endSize=8;curved=1;entryX=1;entryY=0.5;entryDx=0;entryDy=0;exitX=1;exitY=0.75;exitDx=0;exitDy=0;" edge="1" parent="1" source="gm0AA_5XcxrUGEXG0xiD-79" target="gm0AA_5XcxrUGEXG0xiD-76">
          <mxGeometry width="50" height="50" relative="1" as="geometry">
            <mxPoint x="166" y="627" as="sourcePoint" />
            <mxPoint x="216" y="577" as="targetPoint" />
            <Array as="points">
              <mxPoint x="465" y="681" />
            </Array>
          </mxGeometry>
        </mxCell>
        <mxCell id="gm0AA_5XcxrUGEXG0xiD-92" value="9.System checking weight limit" style="edgeLabel;html=1;align=center;verticalAlign=middle;resizable=0;points=[];fontSize=12;" vertex="1" connectable="0" parent="gm0AA_5XcxrUGEXG0xiD-91">
          <mxGeometry x="0.2571" y="8" relative="1" as="geometry">
            <mxPoint as="offset" />
          </mxGeometry>
        </mxCell>
        <mxCell id="gm0AA_5XcxrUGEXG0xiD-93" value="" style="endArrow=none;dashed=1;html=1;dashPattern=1 3;strokeWidth=2;rounded=0;fontSize=12;startSize=8;endSize=8;curved=1;entryX=0.5;entryY=1;entryDx=0;entryDy=0;" edge="1" parent="1" target="gm0AA_5XcxrUGEXG0xiD-61">
          <mxGeometry width="50" height="50" relative="1" as="geometry">
            <mxPoint x="11" y="581" as="sourcePoint" />
            <mxPoint x="215" y="527" as="targetPoint" />
          </mxGeometry>
        </mxCell>
        <mxCell id="gm0AA_5XcxrUGEXG0xiD-94" value="" style="endArrow=none;dashed=1;html=1;dashPattern=1 3;strokeWidth=2;rounded=0;fontSize=12;startSize=8;endSize=8;curved=1;entryX=0.5;entryY=1;entryDx=0;entryDy=0;" edge="1" parent="1" target="gm0AA_5XcxrUGEXG0xiD-60">
          <mxGeometry width="50" height="50" relative="1" as="geometry">
            <mxPoint x="201" y="577" as="sourcePoint" />
            <mxPoint x="215" y="527" as="targetPoint" />
          </mxGeometry>
        </mxCell>
        <mxCell id="gm0AA_5XcxrUGEXG0xiD-95" value="" style="endArrow=none;dashed=1;html=1;dashPattern=1 3;strokeWidth=2;rounded=0;fontSize=12;startSize=8;endSize=8;curved=1;entryX=0.5;entryY=1;entryDx=0;entryDy=0;exitX=0.25;exitY=0;exitDx=0;exitDy=0;" edge="1" parent="1" source="gm0AA_5XcxrUGEXG0xiD-76" target="gm0AA_5XcxrUGEXG0xiD-47">
          <mxGeometry width="50" height="50" relative="1" as="geometry">
            <mxPoint x="165" y="577" as="sourcePoint" />
            <mxPoint x="215" y="527" as="targetPoint" />
          </mxGeometry>
        </mxCell>
        <mxCell id="gm0AA_5XcxrUGEXG0xiD-96" value="" style="endArrow=none;dashed=1;html=1;dashPattern=1 3;strokeWidth=2;rounded=0;fontSize=12;startSize=8;endSize=8;curved=1;entryX=0.5;entryY=1;entryDx=0;entryDy=0;exitX=0.5;exitY=0;exitDx=0;exitDy=0;" edge="1" parent="1" source="gm0AA_5XcxrUGEXG0xiD-77" target="gm0AA_5XcxrUGEXG0xiD-74">
          <mxGeometry width="50" height="50" relative="1" as="geometry">
            <mxPoint x="165" y="611" as="sourcePoint" />
            <mxPoint x="215" y="561" as="targetPoint" />
          </mxGeometry>
        </mxCell>
        <mxCell id="gm0AA_5XcxrUGEXG0xiD-97" value="" style="endArrow=none;dashed=1;html=1;dashPattern=1 3;strokeWidth=2;rounded=0;fontSize=12;startSize=8;endSize=8;curved=1;entryX=0.5;entryY=1;entryDx=0;entryDy=0;" edge="1" parent="1" target="gm0AA_5XcxrUGEXG0xiD-75">
          <mxGeometry width="50" height="50" relative="1" as="geometry">
            <mxPoint x="204" y="686" as="sourcePoint" />
            <mxPoint x="215" y="561" as="targetPoint" />
          </mxGeometry>
        </mxCell>
        <mxCell id="gm0AA_5XcxrUGEXG0xiD-98" value="" style="endArrow=none;dashed=1;html=1;dashPattern=1 3;strokeWidth=2;rounded=0;fontSize=12;startSize=8;endSize=8;curved=1;entryX=0.5;entryY=1;entryDx=0;entryDy=0;exitX=0.5;exitY=0;exitDx=0;exitDy=0;" edge="1" parent="1" source="gm0AA_5XcxrUGEXG0xiD-79" target="gm0AA_5XcxrUGEXG0xiD-76">
          <mxGeometry width="50" height="50" relative="1" as="geometry">
            <mxPoint x="165" y="611" as="sourcePoint" />
            <mxPoint x="215" y="561" as="targetPoint" />
          </mxGeometry>
        </mxCell>
      </root>
    </mxGraphModel>
  </diagram>
</mxfile>
